<svg width="1440" height="1024" viewBox="0 0 1440 1024" fill="none" xmlns="http://www.w3.org/2000/svg">
<g clip-path="url(#clip0_301_3717)">
<path fill-rule="evenodd" clip-rule="evenodd" d="M714.121 661.872C586.51 620.555 426.616 587.064 359.604 490.11C290.947 390.774 389.817 299.788 394.286 199.124C397.703 122.164 367.86 43.1734 382.738 -30.9305C402.043 -127.084 379.826 -263.916 493.431 -294.701C608.682 -325.932 748.168 -167.642 879.091 -165.433C1066.73 -162.267 1189.29 -347.868 1375.8 -279.814C1541.18 -219.468 1570.97 -33.1588 1607.21 100.246C1638.5 215.431 1614.9 323.919 1566.15 420.897C1524.06 504.608 1438.02 560.012 1349.32 613.204C1266.44 662.914 1180.53 710.93 1068.21 719.536C954.001 728.286 832.543 700.214 714.121 661.872Z" fill="url(#paint0_linear_301_3717)"/>
<path fill-rule="evenodd" clip-rule="evenodd" d="M8.37234 -577.239C154.74 -747.318 384.84 -621.552 578.384 -696.713C759.853 -767.184 917.824 -1002.16 1091.94 -998.031C1265.01 -993.929 1318.92 -794.625 1423.36 -676.685C1533.45 -552.363 1762.71 -485.291 1721.51 -287.074C1677.5 -75.3151 1386.23 24.509 1239.41 208.414C1137.74 335.759 1117.75 504.354 1000.13 616.508C872.913 737.818 715.526 832.181 564.472 852C413.988 871.745 301.069 788.915 185.25 723.429C68.381 657.348 -72.3182 606.182 -112.195 469.399C-151.87 333.308 -42.5937 160.734 -24.5236 3.86863C-1.47623 -196.205 -138.389 -406.701 8.37234 -577.239Z" fill="url(#paint1_linear_301_3717)"/>
</g>
<defs>
<linearGradient id="paint0_linear_301_3717" x1="496" y1="533" x2="1761.55" y2="254.913" gradientUnits="userSpaceOnUse">
<stop stop-color="#A0615F"/>
<stop offset="1" stop-color="#E2CAC9"/>
</linearGradient>
<linearGradient id="paint1_linear_301_3717" x1="-249.219" y1="-7.46801" x2="1728.47" y2="-388.706" gradientUnits="userSpaceOnUse">
<stop stop-color="#5F9EA0"/>
<stop offset="1" stop-color="#A0615F"/>
</linearGradient>
<clipPath id="clip0_301_3717">
<rect width="1440" height="1024" fill="white"/>
</clipPath>
</defs>
</svg>
